<svg width="36" height="36" viewBox="0 0 36 36" fill="none" xmlns="http://www.w3.org/2000/svg">
<rect width="36" height="36" rx="18" fill="#111827"/>
<path d="M23.8334 25.5V23.8333C23.8334 22.9493 23.4822 22.1014 22.857 21.4763C22.2319 20.8512 21.3841 20.5 20.5 20.5H15.5C14.616 20.5 13.7681 20.8512 13.143 21.4763C12.5179 22.1014 12.1667 22.9493 12.1667 23.8333V25.5" stroke="#9CA3AF" stroke-width="1.66667" stroke-linecap="round" stroke-linejoin="round"/>
<path d="M18 17.1667C19.841 17.1667 21.3334 15.6743 21.3334 13.8333C21.3334 11.9924 19.841 10.5 18 10.5C16.1591 10.5 14.6667 11.9924 14.6667 13.8333C14.6667 15.6743 16.1591 17.1667 18 17.1667Z" stroke="#9CA3AF" stroke-width="1.66667" stroke-linecap="round" stroke-linejoin="round"/>
</svg>
