<svg width="32" height="32" viewBox="0 0 32 32" fill="none" xmlns="http://www.w3.org/2000/svg">
<rect width="32" height="32" rx="10" fill="url(#paint0_linear_1_258)"/>
<path d="M13.75 20.5V10.75L22.75 9.25V19M13.75 20.5C13.75 21.7427 12.7426 22.75 11.5 22.75C10.2574 22.75 9.25 21.7427 9.25 20.5C9.25 19.2573 10.2574 18.25 11.5 18.25C12.7426 18.25 13.75 19.2573 13.75 20.5ZM22.75 19C22.75 20.2427 21.7427 21.25 20.5 21.25C19.2573 21.25 18.25 20.2427 18.25 19C18.25 17.7573 19.2573 16.75 20.5 16.75C21.7427 16.75 22.75 17.7573 22.75 19ZM13.75 14.5L22.75 13" stroke="white" stroke-width="1.5" stroke-linecap="round" stroke-linejoin="round"/>
<defs>
<linearGradient id="paint0_linear_1_258" x1="0" y1="0" x2="32" y2="32" gradientUnits="userSpaceOnUse">
<stop stop-color="#00D3F2"/>
<stop offset="1" stop-color="#155DFC"/>
</linearGradient>
</defs>
</svg>
